<?xml version="1.0" encoding="UTF-8" standalone="no"?>
<svg
   xmlns:dc="http://purl.org/dc/elements/1.1/"
   xmlns:cc="http://creativecommons.org/ns#"
   xmlns:rdf="http://www.w3.org/1999/02/22-rdf-syntax-ns#"
   xmlns:svg="http://www.w3.org/2000/svg"
   xmlns="http://www.w3.org/2000/svg"
   xmlns:sodipodi="http://sodipodi.sourceforge.net/DTD/sodipodi-0.dtd"
   xmlns:inkscape="http://www.inkscape.org/namespaces/inkscape"
   width="79.375mm"
   height="132.29167mm"
   viewBox="0 0 79.375 132.29167"
   version="1.1"
   id="svg1813"
   inkscape:version="1.0 (4035a4f, 2020-05-01)"
   sodipodi:docname="Stemma_di_Torino_(CoA_of_Turin).svg">
  <defs
     id="defs1807">
    <linearGradient
       id="linearGradient2893-1">
      <stop
         id="stop2895-7"
         style="stop-color:#ffffff;stop-opacity:0.27450982;"
         offset="0" />
      <stop
         id="stop2897-4"
         style="stop-color:#ffffff;stop-opacity:0.23529412;"
         offset="0.20508689" />
      <stop
         id="stop2901-0"
         style="stop-color:#6b6b6b;stop-opacity:0.13725491;"
         offset="0.60000002" />
      <stop
         id="stop2899-9"
         style="stop-color:#000000;stop-opacity:0.13725491;"
         offset="1" />
    </linearGradient>
    <linearGradient
       id="linearGradient2893-1-4">
      <stop
         id="stop2895-7-4"
         style="stop-color:#ffffff;stop-opacity:0.27450982;"
         offset="0" />
      <stop
         id="stop2897-4-9"
         style="stop-color:#ffffff;stop-opacity:0.23529412;"
         offset="0.19" />
      <stop
         id="stop2901-0-8"
         style="stop-color:#6b6b6b;stop-opacity:0.13725491;"
         offset="0.60000002" />
      <stop
         id="stop2899-9-5"
         style="stop-color:#000000;stop-opacity:0.13725491;"
         offset="1" />
    </linearGradient>
    <linearGradient
       id="linearGradient4117">
      <stop
         id="stop4119"
         style="stop-color:#ffd600;stop-opacity:1"
         offset="0" />
      <stop
         id="stop4121"
         style="stop-color:#000000;stop-opacity:1;"
         offset="1" />
    </linearGradient>
    <linearGradient
       id="linearGradient3838">
      <stop
         style="stop-color:#ffffff;stop-opacity:1;"
         offset="0"
         id="stop3840" />
      <stop
         style="stop-color:#ffffff;stop-opacity:0.49193549;"
         offset="1"
         id="stop3842" />
    </linearGradient>
  </defs>
  <sodipodi:namedview
     id="base"
     pagecolor="#ffffff"
     bordercolor="#666666"
     borderopacity="1.0"
     inkscape:pageopacity="0.0"
     inkscape:pageshadow="2"
     inkscape:zoom="0.6859114"
     inkscape:cx="393.93212"
     inkscape:cy="309.23118"
     inkscape:document-units="mm"
     inkscape:current-layer="layer1"
     inkscape:document-rotation="0"
     showgrid="false"
     inkscape:window-width="1440"
     inkscape:window-height="779"
     inkscape:window-x="144"
     inkscape:window-y="25"
     inkscape:window-maximized="0"
     inkscape:snap-global="false" />
  <metadata
     id="metadata1810">
    <rdf:RDF>
      <cc:Work
         rdf:about="">
        <dc:format>image/svg+xml</dc:format>
        <dc:type
           rdf:resource="http://purl.org/dc/dcmitype/StillImage" />
        <dc:title />
      </cc:Work>
    </rdf:RDF>
  </metadata>
  <g
     inkscape:label="Livello 1"
     inkscape:groupmode="layer"
     id="layer1"
     transform="translate(-109.23512,-182.5625)">
    <g
       transform="translate(0.600015,-0.12097076)"
       id="g336">
      <path
         d="m 182.19139,190.85604 c 1.03079,0.37481 1.76165,1.28861 1.76165,2.36161 0,1.40778 -1.25637,2.55282 -2.80035,2.55282 -1.55413,0 -2.80138,-1.14504 -2.80138,-2.55282 0,-0.24945 0.0407,-0.48972 0.11369,-0.71727 -0.37196,0.54162 -0.59066,1.17929 -0.59066,1.86552 0,1.94647 1.74242,3.52899 3.88865,3.52899 2.13835,0 3.86953,-1.58252 3.86953,-3.52899 0,-1.8212 -1.50489,-3.31542 -3.44113,-3.50986 z"
         style="stroke-width:1.07575"
         id="path34" />
      <path
         d="m 177.61182,187.96939 c 1.03519,0.37665 1.7694,1.29566 1.7694,2.37143 0,1.40675 -1.26105,2.54765 -2.81068,2.54765 -1.54286,0 -2.79569,-1.14193 -2.79569,-2.54765 0,-0.25295 0.0413,-0.49685 0.11627,-0.7276 -0.37378,0.54234 -0.59376,1.18119 -0.59376,1.86655 0,1.95263 1.7458,3.5264 3.88865,3.5264 2.1406,0 3.8778,-1.5748 3.8778,-3.5264 0,-1.81646 -1.5125,-3.31657 -3.45199,-3.51038 z"
         style="stroke-width:1.07575"
         id="path38" />
      <path
         d="m 170.7709,185.57212 c 1.04027,0.37432 1.78128,1.29828 1.78128,2.37454 0,1.41188 -1.25998,2.55178 -2.80396,2.55178 -1.54737,0 -2.80138,-1.1399 -2.80138,-2.55178 0,-0.25316 0.042,-0.49732 0.11782,-0.72864 -0.37353,0.5427 -0.59273,1.18124 -0.59273,1.86655 0,1.95058 1.73904,3.53519 3.88866,3.53519 2.14285,0 3.87625,-1.58564 3.87625,-3.53519 0,-1.8204 -1.51747,-3.32508 -3.46594,-3.51245 z"
         style="stroke-width:1.07575"
         id="path42" />
      <path
         d="m 160.90489,183.96716 c 0.94331,0.58932 1.46865,1.65148 1.23172,2.70887 -0.30847,1.37672 -1.78325,2.21072 -3.29757,1.87141 -1.50772,-0.33783 -2.48516,-1.72128 -2.17668,-3.098 0.0544,-0.24284 0.14653,-0.46785 0.26742,-0.67355 -0.47804,0.44657 -0.82772,1.01864 -0.97679,1.6839 -0.42558,1.89939 0.92796,3.82865 3.02005,4.29742 2.08992,0.46828 4.13162,-0.70129 4.55698,-2.59967 0.39933,-1.78221 -0.75886,-3.58472 -2.62513,-4.19038 z"
         style="stroke-width:1.07575"
         id="path46" />
      <path
         style="stroke-width:1.07575"
         id="path82"
         d="m 137.4668,192.9859 c 0.89435,-0.0975 2.10901,0.59306 2.46766,1.81205 1.01503,3.81907 1.82706,6.63667 2.48683,8.80273 0.14774,0.54792 -0.26842,0.97375 -0.93721,0.99119 -0.64962,0.0267 -1.36692,-0.36118 -1.62519,-0.89166 -0.93383,-2.11373 -2.07856,-4.85746 -3.503,-8.54006 -0.42293,-1.1882 0.17594,-2.06138 1.11091,-2.17425 z"
         clip-rule="evenodd"
         fill-rule="evenodd" />
      <path
         style="stroke-width:1.07575"
         id="path84"
         d="m 134.98447,190.58077 c 1.09962,-0.17341 2.22179,-0.32219 3.36879,-0.45046 0.92931,-0.0738 2.30977,0.61976 2.61992,2.09731 0.28533,1.38623 -0.60113,2.13117 -1.45715,2.23172 -1.01277,0.0934 -2.01089,0.19496 -2.99322,0.31399 -0.7703,0.0636 -2.01767,-0.46893 -2.53871,-1.71048 -0.5876,-1.37905 0.0812,-2.30252 1.00037,-2.48208 z"
         clip-rule="evenodd"
         fill-rule="evenodd" />
      <path
         style="stroke-width:1.07575"
         id="path86"
         d="m 148.07617,192.33433 c 1.00037,-0.006 2.03796,0.78598 1.99849,2.09115 -0.24587,3.96066 -0.43308,6.86344 -0.58534,9.07567 -0.0587,0.56947 -0.69022,0.97785 -1.37593,0.98606 -0.68684,0 -1.31842,-0.40428 -1.39512,-0.97272 -0.16466,-2.21326 -0.37218,-5.1068 -0.63045,-9.05413 -0.0384,-1.29182 0.98008,-2.11166 1.98835,-2.12603 z"
         clip-rule="evenodd"
         fill-rule="evenodd" />
      <path
         style="stroke-width:1.07575"
         id="path88"
         d="m 146.17242,189.57008 c 1.26653,-0.0431 2.54321,-0.0585 3.81314,-0.0503 1.02406,0.039 2.21617,0.86909 2.0312,2.42668 -0.16015,1.42624 -1.3827,2.07986 -2.26127,2.09936 -1.11766,0 -2.23759,0.0103 -3.34623,0.0359 -0.86843,-0.006 -2.08196,-0.63411 -2.24774,-2.0501 -0.17369,-1.53911 0.99134,-2.40205 2.0109,-2.46156 z"
         clip-rule="evenodd"
         fill-rule="evenodd" />
      <path
         style="stroke-width:1.07575"
         id="path90"
         d="m 158.87727,192.75092 c 0.96316,0.0872 1.6015,0.95528 1.16503,2.18658 -1.46729,3.76571 -2.63457,6.55356 -3.56277,8.69909 -0.26503,0.53767 -0.99699,0.93476 -1.65676,0.91834 -0.67782,-0.0185 -1.1109,-0.43813 -0.9688,-0.99529 0.63948,-2.19069 1.44248,-5.04524 2.48008,-8.92484 0.37668,-1.24566 1.62969,-1.96699 2.54322,-1.88388 z"
         clip-rule="evenodd"
         fill-rule="evenodd" />
      <path
         style="stroke-width:1.07575"
         id="path92"
         d="m 157.96374,189.87688 c 1.18985,0.10465 2.35262,0.23291 3.50074,0.37452 0.93497,0.15596 1.66241,1.06712 1.05113,2.49645 -0.56053,1.29696 -1.85751,1.85309 -2.65037,1.80282 -1.0218,-0.10159 -2.0515,-0.1847 -3.09473,-0.26268 -0.87632,-0.08 -1.79549,-0.80548 -1.5,-2.21736 0.31128,-1.51962 1.7312,-2.24095 2.69323,-2.19375 z"
         clip-rule="evenodd"
         fill-rule="evenodd" />
      <path
         style="stroke-width:1.07575"
         id="path94"
         d="m 167.95169,194.09303 c 0.79398,0.17034 0.94849,1.03429 0.27744,2.06242 -2.27255,3.32245 -4.12555,5.85275 -5.65149,7.82488 -0.37556,0.47097 -1.13796,0.85473 -1.71879,0.81984 -0.61579,-0.0339 -0.78947,-0.46995 -0.4906,-0.97375 1.32857,-2.05216 2.956,-4.69226 4.98044,-8.21068 0.63834,-1.0384 1.87894,-1.67867 2.603,-1.52271 z"
         clip-rule="evenodd"
         fill-rule="evenodd" />
      <path
         style="stroke-width:1.07575"
         id="path96"
         d="m 168.05996,191.40163 c 0.89887,0.20624 1.77519,0.42377 2.61089,0.65874 0.72858,0.25344 0.9079,1.15537 0.0824,2.31997 -0.7376,1.03634 -1.91165,1.52577 -2.55338,1.41291 -0.77256,-0.16316 -1.57331,-0.31501 -2.39323,-0.45866 -0.74661,-0.15699 -1.20677,-0.93271 -0.57293,-2.17426 0.67443,-1.29184 2.05827,-1.89824 2.82631,-1.7587 z"
         clip-rule="evenodd"
         fill-rule="evenodd" />
      <path
         style="stroke-width:1.07575"
         id="path98"
         d="m 174.29002,195.95331 c 0.5436,0.21856 0.29549,1.01479 -0.41617,1.80898 -2.57029,2.76836 -4.74472,4.9457 -6.58081,6.70338 -0.39135,0.35809 -1.11541,0.75519 -1.60601,0.70491 -0.50752,-0.0565 -0.41052,-0.48636 -0.0349,-0.89987 1.75601,-1.8449 3.84134,-4.16486 6.34848,-7.1528 0.67669,-0.76648 1.77857,-1.37289 2.28947,-1.1646 z"
         clip-rule="evenodd"
         fill-rule="evenodd" />
      <path
         style="stroke-width:1.07575"
         id="path100"
         d="m 175.12686,193.62412 c 0.5515,0.24728 1.08271,0.50174 1.57444,0.76647 0.46691,0.29552 0.2233,1.1092 -0.59662,1.98854 -0.68346,0.72852 -1.67481,1.21694 -2.14398,1.06611 -0.48834,-0.19188 -1.00264,-0.37247 -1.54511,-0.54793 -0.54361,-0.20933 -0.54361,-0.96657 0.21429,-1.94852 0.7545,-0.95632 1.94322,-1.51963 2.49698,-1.32467 z"
         clip-rule="evenodd"
         fill-rule="evenodd" />
      <path
         style="stroke-width:1.07575"
         id="path102"
         d="m 177.90806,197.92338 c 0.30564,0.24318 -0.17594,0.9204 -0.81654,1.50834 -2.48797,2.23583 -4.67142,4.0643 -6.5763,5.57058 -0.31918,0.24523 -1.01053,0.65362 -1.38045,0.59513 -0.3891,-0.0626 -0.07,-0.48226 0.30564,-0.80444 1.90375,-1.59761 4.11202,-3.56256 6.66201,-6.00154 0.51768,-0.47918 1.50338,-1.10611 1.80564,-0.86807 z"
         clip-rule="evenodd"
         fill-rule="evenodd" />
      <path
         style="stroke-width:1.07575"
         id="path104"
         d="m 179.11369,196.01693 c 0.2673,0.2401 0.51203,0.48226 0.73534,0.73364 0.20864,0.29962 -0.25827,0.98607 -0.96203,1.62224 -0.4906,0.44737 -1.34887,0.96965 -1.6421,0.79111 -0.25489,-0.1806 -0.52105,-0.36837 -0.80865,-0.5428 -0.3248,-0.22779 -0.008,-0.89987 0.72181,-1.6407 0.61578,-0.6177 1.62405,-1.20359 1.95563,-0.96349 z"
         clip-rule="evenodd"
         fill-rule="evenodd" />
      <ellipse
         cx="148.1788"
         cy="216.08838"
         rx="19.935921"
         ry="2.3169515"
         id="path236"
         style="fill:#ffffff;stroke:none;stroke-width:3.18359" />
      <path
         style="stroke-width:1.09455"
         d="m 148.30779,203.64749 c -9.69794,1e-5 -22.84311,1.41687 -22.84311,1.41687 -1.30535,0 -2.35796,0.92201 -2.35796,2.0702 0,1.01406 0.82783,1.85541 1.92469,2.03411 v 3.55522 c -1.09686,0.17769 -1.92469,1.01367 -1.92469,2.03411 0,0.74441 0.45147,1.39229 1.12426,1.75756 2.62814,1.89039 22.00938,2.19044 23.99244,2.19044 6.33063,0 12.0609,-0.21745 16.20933,-0.55914 0.7827,-0.0632 5.05378,-0.46495 7.13546,-1.52308 0.86759,-0.30717 1.48002,-1.05224 1.48002,-1.92189 0,-1.02757 -0.84779,-1.87287 -1.96346,-2.03813 v -3.54318 c 1.11631,-0.1657 1.96346,-1.01499 1.96346,-2.03612 0,-1.14306 -1.05262,-2.07421 -2.35797,-2.07421 0,0 -13.38509,-1.36276 -22.38247,-1.36276 z m -0.0867,11.4011 c 6.37265,0 19.36087,0.44198 19.36087,1.12228 0,1.24155 -12.98822,1.10623 -19.36087,1.10623 -2.66794,0 -19.35634,0.13429 -19.35634,-1.10623 0,-0.99325 16.63002,-1.12228 19.35634,-1.12228 z"
         id="path106" />
      <polygon
         transform="matrix(1.1675823,0,0,1.0260787,-208.41367,-140.10493)"
         id="polygon112"
         points="305.444,339.134 302.522,340.532 305.444,342.079 308.127,340.532 "
         fill="#ffffff"
         clip-rule="evenodd"
         fill-rule="evenodd" />
      <path
         style="stroke-width:1.09455"
         id="path114"
         d="m 134.01812,209.27079 3.27741,-0.20932 c 0.58379,-0.0328 1.09286,0.35297 1.12905,0.86601 v 0.0102 c 0.042,0.50689 -0.40398,0.9522 -0.98194,0.98915 l -3.27623,0.20213 c -0.58146,0.0328 -1.08703,-0.35502 -1.12555,-0.8619 -0.0432,-0.51919 0.39347,-0.95939 0.97726,-0.99633 z"
         fill="#ffffff"
         clip-rule="evenodd"
         fill-rule="evenodd" />
      <path
         style="stroke-width:1.09455"
         id="path118"
         d="m 139.50459,209.50268 c 0,-1.00863 0.9329,-1.82437 2.07713,-1.82437 1.14656,0 2.0748,0.81574 2.0748,1.82437 0,1.00556 -0.92824,1.8213 -2.0748,1.8213 -1.14423,0 -2.07713,-0.81574 -2.07713,-1.8213 z"
         fill="#ffffff"
         clip-rule="evenodd"
         fill-rule="evenodd" />
      <path
         style="stroke-width:1.09455"
         id="path120"
         d="m 158.71762,209.02864 3.2739,0.20008 c 0.58146,0.0349 1.03332,0.47815 0.98895,0.9912 -0.0361,0.51201 -0.5511,0.89473 -1.1349,0.8619 l -3.27156,-0.20112 c -0.5873,-0.0369 -1.02513,-0.47609 -0.9866,-0.99015 0.0444,-0.51408 0.54759,-0.89783 1.13021,-0.86191 z"
         fill="#ffffff"
         clip-rule="evenodd"
         fill-rule="evenodd" />
      <path
         style="stroke-width:1.09455"
         id="path122"
         d="m 152.50258,209.50268 c 0,-1.00863 0.92123,-1.82437 2.07363,-1.82437 1.14541,0 2.07597,0.81574 2.07597,1.82437 0,1.00556 -0.93056,1.8213 -2.07597,1.8213 -1.1524,0 -2.07363,-0.81574 -2.07363,-1.8213 z"
         fill="#ffffff"
         clip-rule="evenodd"
         fill-rule="evenodd" />
      <path
         style="stroke-width:1.09455"
         id="path124"
         d="m 163.9589,210.26712 c 0,-1.01172 0.92822,-1.83258 2.07129,-1.83258 1.1454,0 2.08413,0.82086 2.08413,1.83258 0,0.99837 -0.93873,1.82436 -2.08413,1.82436 -1.14307,9.7e-4 -2.07129,-0.82599 -2.07129,-1.82436 z"
         fill="#ffffff"
         clip-rule="evenodd"
         fill-rule="evenodd" />
      <path
         sodipodi:nodetypes="cccsc"
         style="stroke-width:1.09455"
         id="path202"
         d="m 125.75537,213.21811 c 0,0 18.99423,-1.42267 26.97233,-1.3518 -25.51167,1.90133 -26.97233,3.55479 -26.97233,3.55479 -0.69004,0 -1.25047,-0.49148 -1.25047,-1.09687 0,-0.61257 0.56043,-1.10612 1.25047,-1.10612 z"
         fill="#fce52e"
         clip-rule="evenodd"
         fill-rule="evenodd" />
      <path
         sodipodi:nodetypes="cccsc"
         style="stroke-width:1.09455"
         id="path204"
         d="m 125.75537,205.69388 c 0,0 18.99423,-1.43551 26.9601,-1.34102 -25.51167,1.90338 -26.9601,3.54401 -26.9601,3.54401 -0.69004,0 -1.25047,-0.48739 -1.25047,-1.10099 0,-0.60538 0.56043,-1.102 1.25047,-1.102 z"
         fill="#fce52e"
         clip-rule="evenodd"
         fill-rule="evenodd" />
      <path
         d="m 114.45382,190.85604 c -1.03079,0.37481 -1.76165,1.28861 -1.76165,2.36161 0,1.40778 1.25637,2.55282 2.80035,2.55282 1.55413,0 2.80138,-1.14504 2.80138,-2.55282 0,-0.24945 -0.0407,-0.48972 -0.11369,-0.71727 0.37196,0.54162 0.59066,1.17929 0.59066,1.86552 0,1.94647 -1.74242,3.52899 -3.88865,3.52899 -2.13835,0 -3.86953,-1.58252 -3.86953,-3.52899 0,-1.8212 1.50489,-3.31542 3.44113,-3.50986 z"
         style="stroke-width:1.07575"
         id="path34-1" />
      <path
         d="m 119.03339,187.96939 c -1.03519,0.37665 -1.7694,1.29566 -1.7694,2.37143 0,1.40675 1.26105,2.54765 2.81068,2.54765 1.54286,0 2.79569,-1.14193 2.79569,-2.54765 0,-0.25295 -0.0413,-0.49685 -0.11627,-0.7276 0.37378,0.54234 0.59376,1.18119 0.59376,1.86655 0,1.95263 -1.7458,3.5264 -3.88865,3.5264 -2.1406,0 -3.8778,-1.5748 -3.8778,-3.5264 0,-1.81646 1.5125,-3.31657 3.45199,-3.51038 z"
         style="stroke-width:1.07575"
         id="path38-3" />
      <path
         d="m 125.87431,185.57212 c -1.04027,0.37432 -1.78128,1.29828 -1.78128,2.37454 0,1.41188 1.25998,2.55178 2.80396,2.55178 1.54737,0 2.80138,-1.1399 2.80138,-2.55178 0,-0.25316 -0.042,-0.49732 -0.11782,-0.72864 0.37353,0.5427 0.59273,1.18124 0.59273,1.86655 0,1.95058 -1.73904,3.53519 -3.88866,3.53519 -2.14285,0 -3.87625,-1.58564 -3.87625,-3.53519 0,-1.8204 1.51747,-3.32508 3.46594,-3.51245 z"
         style="stroke-width:1.07575"
         id="path42-7" />
      <path
         style="stroke-width:1.07575"
         id="path94-0"
         d="m 128.69352,194.09303 c -0.79398,0.17034 -0.94849,1.03429 -0.27744,2.06242 2.27255,3.32245 4.12555,5.85275 5.65149,7.82488 0.37556,0.47097 1.13796,0.85473 1.71879,0.81984 0.61579,-0.0339 0.78947,-0.46995 0.4906,-0.97375 -1.32857,-2.05216 -2.956,-4.69226 -4.98044,-8.21068 -0.63834,-1.0384 -1.87894,-1.67867 -2.603,-1.52271 z"
         clip-rule="evenodd"
         fill-rule="evenodd" />
      <path
         style="stroke-width:1.07575"
         id="path96-9"
         d="m 128.58525,191.40163 c -0.89887,0.20624 -1.77519,0.42377 -2.61089,0.65874 -0.72858,0.25344 -0.9079,1.15537 -0.0824,2.31997 0.7376,1.03634 1.91165,1.52577 2.55338,1.41291 0.77256,-0.16316 1.57331,-0.31501 2.39323,-0.45866 0.74661,-0.15699 1.20677,-0.93271 0.57293,-2.17426 -0.67443,-1.29184 -2.05827,-1.89824 -2.82631,-1.7587 z"
         clip-rule="evenodd"
         fill-rule="evenodd" />
      <path
         style="stroke-width:1.07575"
         id="path98-4"
         d="m 122.35519,195.95331 c -0.5436,0.21856 -0.29549,1.01479 0.41617,1.80898 2.57029,2.76836 4.74472,4.9457 6.58081,6.70338 0.39135,0.35809 1.11541,0.75519 1.60601,0.70491 0.50752,-0.0565 0.41052,-0.48636 0.0349,-0.89987 -1.75601,-1.8449 -3.84134,-4.16486 -6.34848,-7.1528 -0.67669,-0.76648 -1.77857,-1.37289 -2.28947,-1.1646 z"
         clip-rule="evenodd"
         fill-rule="evenodd" />
      <path
         style="stroke-width:1.07575"
         id="path100-1"
         d="m 121.51835,193.62412 c -0.5515,0.24728 -1.08271,0.50174 -1.57444,0.76647 -0.46691,0.29552 -0.2233,1.1092 0.59662,1.98854 0.68346,0.72852 1.67481,1.21694 2.14398,1.06611 0.48834,-0.19188 1.00264,-0.37247 1.54511,-0.54793 0.54361,-0.20933 0.54361,-0.96657 -0.21429,-1.94852 -0.7545,-0.95632 -1.94322,-1.51963 -2.49698,-1.32467 z"
         clip-rule="evenodd"
         fill-rule="evenodd" />
      <path
         style="stroke-width:1.07575"
         id="path102-8"
         d="m 118.73715,197.92338 c -0.30564,0.24318 0.17594,0.9204 0.81654,1.50834 2.48797,2.23583 4.67142,4.0643 6.5763,5.57058 0.31918,0.24523 1.01053,0.65362 1.38045,0.59513 0.3891,-0.0626 0.07,-0.48226 -0.30564,-0.80444 -1.90375,-1.59761 -4.11202,-3.56256 -6.66201,-6.00154 -0.51768,-0.47918 -1.50338,-1.10611 -1.80564,-0.86807 z"
         clip-rule="evenodd"
         fill-rule="evenodd" />
      <path
         style="stroke-width:1.07575"
         id="path104-5"
         d="m 117.53152,196.01693 c -0.2673,0.2401 -0.51203,0.48226 -0.73534,0.73364 -0.20864,0.29962 0.25827,0.98607 0.96203,1.62224 0.4906,0.44737 1.34887,0.96965 1.6421,0.79111 0.25489,-0.1806 0.52105,-0.36837 0.80865,-0.5428 0.3248,-0.22779 0.008,-0.89987 -0.72181,-1.6407 -0.61578,-0.6177 -1.62405,-1.20359 -1.95563,-0.96349 z"
         clip-rule="evenodd"
         fill-rule="evenodd" />
      <path
         style="stroke-width:1.09455"
         id="path124-0"
         d="m 127.97534,210.26712 c 0,-1.01172 0.92822,-1.83258 2.07129,-1.83258 1.1454,0 2.08413,0.82086 2.08413,1.83258 0,0.99837 -0.93873,1.82436 -2.08413,1.82436 -1.14307,9.7e-4 -2.07129,-0.82599 -2.07129,-1.82436 z"
         fill="#ffffff"
         clip-rule="evenodd"
         fill-rule="evenodd" />
      <path
         d="m 135.05714,184.05776 c -0.89936,0.65443 -1.34843,1.75101 -1.03747,2.78905 0.40488,1.35152 1.93483,2.07935 3.42143,1.63401 1.48012,-0.4434 2.35748,-1.89239 1.95261,-3.2439 -0.0714,-0.2384 -0.1792,-0.45635 -0.3143,-0.653 0.50837,0.41172 0.89755,0.95768 1.0932,1.61077 0.55858,1.86461 -0.65542,3.88459 -2.70922,4.49984 -2.05166,0.61461 -4.17081,-0.40793 -4.72909,-2.27156 -0.52412,-1.74958 0.50397,-3.62934 2.32284,-4.36521 z"
         style="stroke-width:1.07575"
         id="path46-3" />
      <path
         d="m 150.45243,183.55839 a 3.0478523,2.8788601 0 0 1 0.68523,1.81866 3.0478523,2.8788601 0 0 1 -3.04787,2.87869 3.0478523,2.8788601 0 0 1 -3.04788,-2.87869 3.0478523,2.8788601 0 0 1 0.6842,-1.81767 3.9999999,3.8431195 0 0 0 -1.63608,3.10013 3.9999999,3.8431195 0 0 0 3.99976,3.84338 3.9999999,3.8431195 0 0 0 4.00027,-3.84338 3.9999999,3.8431195 0 0 0 -1.63763,-3.10112 z"
         style="fill:#000000;stroke-width:0.961688"
         id="path275" />
    </g>
    <path
       sodipodi:nodetypes="cscsczszc"
       inkscape:connector-curvature="0"
       style="fill:#104fa4;fill-opacity:1;stroke:#000000;stroke-width:0.844469;stroke-miterlimit:4;stroke-dasharray:none"
       id="CoA_Nr._7"
       d="m 112.79429,218.31045 c -2.89413,11.74297 -2.11063,23.43638 -2.11063,23.43638 0.61809,27.52467 18.30663,59.17032 37.9432,71.73744 20.63366,-12.07353 38.62915,-43.72216 38.62915,-71.73744 0,0 0.20255,-13.1755 -3.06039,-23.43638 -5.26804,2.67292 -14.47705,2.25742 -17.85034,1.68413 -3.37329,-0.57329 -11.29177,-3.31145 -17.71842,-3.31145 -6.42664,0 -14.08838,2.82027 -17.98224,3.31145 -3.89385,0.49119 -12.21236,0.62167 -17.85033,-1.68413 z" />
    <g
       id="g1935"
       transform="matrix(0.8385305,0,0,0.86529034,89.949898,94.502137)">
      <g
         id="g1930">
        <path
           id="path912-2"
           d="m 75.834568,240.36881 c 0,-0.298 0.1861,-2.14708 0.41356,-4.10906 l 0.41356,-3.56727 1.35059,-1.77791 c 1.48052,-1.94893 3.214173,-5.43294 3.495949,-7.02561 0.34189,-1.93235 0.0757,-2.3412 -3.071099,-4.71708 -2.86378,-2.1622 -3.60642,-3.04099 -4.0172,-4.75357 -0.15597,-0.65026 -0.244,-0.68675 -1.35528,-0.56149 -2.95155,0.33269 -4.25413,-2.85809 -2.51581,-6.16269 0.81667,-1.55251 0.83659,-2.03575 0.0638,-1.5483 -0.76992,0.48564 -1.44736,2.1878 -1.67359,4.20506 -0.24179,2.15612 -0.52954,2.8918 -1.29038,3.29897 -0.32315,0.17295 -2.52977,0.207 -6.22017,0.096 l -5.71937,-0.17207 -0.87333,0.95346 c -0.7092,0.77428 -1.12904,0.98738 -2.2339,1.13395 -1.1763,0.15604 -1.43121,0.30023 -1.88229,1.06476 -0.32287,0.54721 -0.8044,0.94656 -1.26331,1.04767 -0.40786,0.0899 -1.19046,0.33183 -1.73911,0.53771 -0.54865,0.20587 -1.38662,0.37433 -1.86216,0.37433 -1.05306,0 -3.19757,-1.03736 -3.30024,-1.59643 -0.072,-0.39183 0.96605,-1.50999 4.79042,-5.16033 2.74073,-2.61602 2.50991,-2.52962 7.51946,-2.81457 5.62756,-0.3201 5.34938,-0.0756 5.32341,-4.67862 -0.0117,-2.0711 0.11485,-3.81111 0.32914,-4.52634 0.45435,-1.51646 1.70933,-2.74472 3.24327,-3.1742 0.67437,-0.18881 1.22613,-0.42272 1.22613,-0.51979 0,-0.0971 -0.49045,-0.64715 -1.08989,-1.22239 -1.228,-1.17845 -2.06867,-2.77488 -2.08336,-3.9563 -0.0128,-1.02761 -0.0649,-1.09018 -2.25072,-2.70223 -1.01863,-0.75124 -2.74505,-2.28012 -3.83646,-3.3975 -1.88679,-1.93171 -4.83556,-4.35131 -5.30294,-4.35131 -0.49797,0 -0.51238,1.09022 -0.027,2.04168 0.28436,0.5574 0.60138,1.60597 0.70448,2.33016 0.14246,1.00055 0.41334,1.55271 1.12819,2.29963 0.91216,0.95308 0.93125,1.01457 0.62861,2.02468 -0.50404,1.68234 -3.29237,5.59135 -3.98835,5.59135 -0.75353,0 -2.66801,-4.26567 -2.66801,-5.94461 0,-0.32847 -0.37097,-1.06007 -0.82438,-1.62578 l -0.82438,-1.02857 0.19306,-2.51354 c 0.10619,-1.38245 0.20927,-2.98979 0.22907,-3.57188 l 0.036,-1.05833 -1.1352,-0.0819 c -0.99523,-0.0718 -1.24806,0.031 -2.05052,0.83344 -0.58344,0.58344 -0.91532,1.16951 -0.91532,1.61638 0,1.04593 -0.67354,2.15076 -1.50888,2.47505 -1.58181,0.6141 -5.87739,0.50104 -6.71438,-0.17672 l -0.60895,-0.49311 1.15619,-2.02078 c 1.60413,-2.80366 3.36805,-4.69222 5.49227,-5.88037 1.67787,-0.9385 1.95268,-1.00641 4.50503,-1.11337 2.1865,-0.0916 2.78163,-0.20328 3.04271,-0.57084 0.91084,-1.28238 2.71006,-1.36843 6.1443,-0.29387 1.30909,0.40961 2.52948,0.68745 2.71198,0.61742 0.21815,-0.0837 0.33181,-0.70676 0.33181,-1.81882 0,-1.85864 -0.2387,-2.06737 -1.45376,-1.27122 -0.96564,0.63271 -2.10819,0.24767 -3.6366,-1.22552 -1.15714,-1.11533 -1.30479,-1.37487 -1.15098,-2.02305 0.097,-0.40896 0.24639,-1.8857 0.33185,-3.28164 0.1287,-2.10195 0.0799,-2.65331 -0.28407,-3.20877 -0.2417,-0.36889 -0.54093,-1.57557 -0.66496,-2.68151 -0.21142,-1.88521 -0.30154,-2.09538 -1.44292,-3.36487 -1.32109,-1.46937 -1.84621,-2.76464 -1.70845,-4.21407 0.0748,-0.7867 0.18755,-0.9266 0.74948,-0.92972 0.52286,-0.003 0.679,-0.15535 0.74517,-0.7276 0.10647,-0.9206 0.48146,-0.91194 1.78239,0.0412 1.59184,1.16622 2.6019,1.34749 5.17636,0.92897 2.88897,-0.46964 4.6722,-0.46167 7.51221,0.0336 5.54704,0.96732 7.75064,2.46497 17.89742,12.1638 2.150179,2.05524 3.260819,4.17032 3.828829,7.29154 0.22347,1.22795 0.69288,3.72093 1.04313,5.53994 0.35025,1.81901 0.82189,4.97416 1.04808,7.01146 0.77018,6.93695 2.11917,10.56541 5.03274,13.53691 2.39179,2.43934 3.87536,2.57759 4.03771,0.37625 0.12421,-1.68407 -0.7638,-3.95881 -3.26234,-8.35691 -2.22815,-3.92215 -3.56457,-6.92318 -4.08162,-9.16554 -0.39744,-1.72375 -0.33269,-4.47277 0.13791,-5.8539 0.9488,-2.78458 4.15839,-5.10624 6.99014,-5.05634 2.15956,0.0381 6.758533,1.57833 7.963773,2.66718 0.53063,0.47939 1.32909,0.94448 1.77437,1.03354 1.72853,0.3457 2.61978,2.36537 2.29313,5.19641 -0.18398,1.59461 -0.42617,1.80842 -1.22722,1.08347 -0.90597,-0.81988 -0.57767,0.71277 0.35986,1.68006 l 0.84371,0.87048 -0.44257,0.92805 c -0.52621,1.10349 -0.78302,1.14106 -1.82227,0.26659 -1.13862,-0.95809 -1.97222,-0.87471 -2.43964,0.244 -0.20808,0.498 -0.68594,1.10701 -1.06189,1.35335 -0.445957,0.2922 -0.684957,0.69021 -0.687607,1.14505 -0.002,0.38345 -0.12242,0.87577 -0.2671,1.09405 -0.21807,0.329 -0.44363,0.20632 -1.31887,-0.71736 -0.82354,-0.8691 -1.05581,-1.32071 -1.05581,-2.05281 0,-0.62297 -0.2669,-1.30702 -0.793746,-2.03432 -0.43657,-0.60265 -0.79375,-1.42048 -0.79375,-1.81739 0,-0.39691 -0.17859,-0.86987 -0.39688,-1.05103 -0.47794,-0.39667 -0.51102,-1.14732 -0.0809,-1.83607 0.43776,-0.70096 -0.0903,-1.80137 -0.97037,-2.02226 -0.84571,-0.21226 -1.9141,0.45162 -2.2929,1.42477 -0.80119,2.05831 0.33723,5.31266 3.70981,10.60501 3.387986,5.31654 4.367996,7.75692 4.368586,10.87855 5.3e-4,2.78594 -0.78095,4.67358 -2.73072,6.59602 -0.822096,0.81057 -1.804596,1.67791 -2.183356,1.92742 -0.5555,0.36596 -0.74814,0.79547 -0.99654,2.22187 -0.38479,2.20966 -1.00255,3.44496 -2.89094,5.78081 -1.90323,2.35423 -2.66094,3.5696 -2.6713,4.28479 -0.005,0.31365 0.40847,1.06905 0.91779,1.67867 1.42709,1.70813 1.25928,2.59259 -1.02376,5.39555 -1.90541,2.33932 -2.11943,2.76444 -2.30776,4.58412 -0.1885,1.8211 -0.88039,2.87094 -2.42317,3.67679 -0.67699,0.35361 -0.7276,0.49645 -0.7276,2.05335 0,1.42798 -0.11292,1.82918 -0.77023,2.73656 -1.712996,2.36473 -6.108949,4.31313 -6.108949,2.70765 z"
           style="fill:#ffe934;fill-opacity:1;stroke-width:0.264583"
           sodipodi:nodetypes="cscsssssssssccssscsscssssssscsssssssssscsscssssscssssssssscssssssssssssssssssssssssscsssscssssssssssssssscsssssscc" />
      </g>
      <path
         id="path912"
         d="m 75.834568,240.36881 c 0,-0.298 0.1861,-2.14709 0.41356,-4.10907 l 0.41356,-3.56726 1.35059,-1.77791 c 1.48052,-1.94894 3.214173,-5.43295 3.495949,-7.02561 0.34189,-1.93235 0.0757,-2.3412 -3.071099,-4.71708 -2.86378,-2.16221 -3.60642,-3.04099 -4.0172,-4.75357 -0.15597,-0.65027 -0.244,-0.68675 -1.35528,-0.56149 -2.95155,0.33268 -4.25413,-2.85809 -2.51581,-6.16269 0.81667,-1.55251 0.83659,-2.03575 0.0638,-1.5483 -0.76991,0.48564 -1.44735,2.1878 -1.67358,4.20506 -0.2418,2.15612 -0.52955,2.89179 -1.29039,3.29897 -0.32315,0.17295 -2.52976,0.20699 -6.22016,0.096 l -5.71936,-0.17206 -0.87333,0.95346 c -0.7092,0.77427 -1.12904,0.98738 -2.2339,1.13394 -1.1763,0.15605 -1.43121,0.30024 -1.88229,1.06476 -0.32287,0.54722 -0.8044,0.94656 -1.26331,1.04767 -0.40786,0.0899 -1.19046,0.33183 -1.73911,0.53771 -0.54865,0.20588 -1.38662,0.37433 -1.86216,0.37433 -1.05306,0 -3.19757,-1.03736 -3.30024,-1.59642 -0.072,-0.39183 0.96605,-1.50999 4.79042,-5.16034 2.74073,-2.61601 2.50991,-2.52961 7.51946,-2.81456 5.62755,-0.3201 5.34937,-0.0756 5.3234,-4.67862 -0.0117,-2.0711 0.11485,-3.81111 0.32914,-4.52634 0.45435,-1.51646 1.70933,-2.74472 3.24327,-3.1742 0.67436,-0.18881 1.22613,-0.42272 1.22613,-0.51979 0,-0.0971 -0.49044,-0.64715 -1.08988,-1.22239 -1.22801,-1.17845 -2.06868,-2.77488 -2.08337,-3.9563 -0.0128,-1.02761 -0.0649,-1.09018 -2.25072,-2.70222 -1.01863,-0.75125 -2.74504,-2.28013 -3.83645,-3.39751 -1.88679,-1.93171 -4.83556,-4.35131 -5.30294,-4.35131 -0.49797,0 -0.51238,1.09022 -0.027,2.04168 0.28436,0.5574 0.60138,1.60597 0.70448,2.33016 0.14246,1.00055 0.41334,1.55271 1.12819,2.29963 0.91216,0.95308 0.93125,1.01457 0.62861,2.02468 -0.50404,1.68234 -3.29237,5.59135 -3.98835,5.59135 -0.75353,0 -2.66801,-4.26567 -2.66801,-5.94461 0,-0.32847 -0.37097,-1.06007 -0.82438,-1.62578 l -0.82438,-1.02857 0.19306,-2.51354 c 0.10619,-1.38245 0.20927,-2.98979 0.22907,-3.57187 l 0.036,-1.05834 -1.1352,-0.0819 c -0.99523,-0.0718 -1.24806,0.031 -2.05052,0.83344 -0.58344,0.58344 -0.91532,1.16951 -0.91532,1.61638 0,1.04593 -0.67354,2.15076 -1.50888,2.47505 -1.58181,0.6141 -5.8774,0.50104 -6.71439,-0.17672 l -0.60896,-0.49311 1.1562,-2.02078 c 1.60413,-2.80366 3.36806,-4.69222 5.49228,-5.88037 1.67787,-0.9385 1.95268,-1.00641 4.50503,-1.11337 2.1865,-0.0916 2.78163,-0.20328 3.04271,-0.57084 0.91084,-1.28238 2.71006,-1.36843 6.1443,-0.29387 1.30909,0.40961 2.52948,0.68744 2.71198,0.61742 0.21815,-0.0837 0.33181,-0.70676 0.33181,-1.81882 0,-1.85864 -0.2387,-2.06737 -1.45376,-1.27122 -0.96564,0.63271 -2.10819,0.24767 -3.6366,-1.22552 -1.15714,-1.11533 -1.30479,-1.37487 -1.15098,-2.02305 0.097,-0.40896 0.24639,-1.8857 0.33185,-3.28164 0.1287,-2.10196 0.0799,-2.65331 -0.28407,-3.20877 -0.2417,-0.36889 -0.54093,-1.57558 -0.66496,-2.68153 -0.21142,-1.88522 -0.30154,-2.09538 -1.44292,-3.36487 -1.32109,-1.46937 -1.84621,-2.76464 -1.70845,-4.21407 0.0748,-0.78671 0.18755,-0.9266 0.74948,-0.92972 0.52286,-0.003 0.679,-0.15536 0.74517,-0.7276 0.10647,-0.9206 0.48146,-0.91194 1.78239,0.0412 1.59184,1.16621 2.6019,1.34748 5.17636,0.92897 2.88897,-0.46964 4.6722,-0.46167 7.5122,0.0336 5.54704,0.96732 7.75064,2.46497 17.89742,12.16381 2.150179,2.05525 3.260809,4.17033 3.828829,7.29155 0.22347,1.22795 0.69288,3.72093 1.04313,5.53994 0.35025,1.81901 0.82189,4.97416 1.04808,7.01145 0.77018,6.93696 2.11917,10.56542 5.03275,13.53692 2.39179,2.43934 3.87536,2.57759 4.03771,0.37625 0.1242,-1.68407 -0.76381,-3.95881 -3.26235,-8.35692 -2.22814,-3.92215 -3.56458,-6.92317 -4.08162,-9.16553 -0.39745,-1.72375 -0.33269,-4.47277 0.13791,-5.85391 0.9488,-2.78457 4.15839,-5.10623 6.99015,-5.05633 2.15956,0.0381 6.758533,1.57832 7.963773,2.66718 0.53062,0.47939 1.32909,0.94448 1.77436,1.03354 1.72853,0.3457 2.61979,2.36537 2.29314,5.19641 -0.18399,1.59461 -0.42617,1.80842 -1.22723,1.08347 -0.90596,-0.81988 -0.57767,0.71277 0.35986,1.68006 l 0.84371,0.87048 -0.44256,0.92804 c -0.52622,1.1035 -0.78302,1.14107 -1.82228,0.26659 -1.13862,-0.95808 -1.97221,-0.87471 -2.43964,0.24401 -0.20808,0.498 -0.68593,1.10701 -1.06188,1.35335 -0.445957,0.2922 -0.684967,0.6902 -0.687607,1.14505 -0.002,0.38345 -0.12243,0.87577 -0.2671,1.09405 -0.21807,0.329 -0.44363,0.20632 -1.31887,-0.71736 -0.82355,-0.8691 -1.05582,-1.32071 -1.05582,-2.05281 0,-0.62297 -0.2669,-1.30702 -0.793746,-2.03432 -0.43657,-0.60265 -0.79375,-1.42048 -0.79375,-1.81739 0,-0.39691 -0.17859,-0.86988 -0.39688,-1.05103 -0.47794,-0.39667 -0.51101,-1.14732 -0.0809,-1.83608 0.43776,-0.70095 -0.0903,-1.80136 -0.97037,-2.02225 -0.84571,-0.21226 -1.9141,0.45162 -2.2929,1.42477 -0.80119,2.05831 0.33723,5.31266 3.70981,10.60501 3.387986,5.31654 4.367996,7.75692 4.368586,10.87855 5.3e-4,2.78594 -0.78095,4.67358 -2.73072,6.59602 -0.822096,0.81057 -1.804596,1.67791 -2.183356,1.92742 -0.5555,0.36596 -0.74814,0.79547 -0.99654,2.22187 -0.38479,2.20966 -1.00255,3.44495 -2.89094,5.7808 -1.90323,2.35423 -2.66094,3.5696 -2.67131,4.28479 -0.005,0.31365 0.40848,1.06905 0.9178,1.67867 1.42709,1.70813 1.25928,2.59259 -1.02376,5.39555 -1.90542,2.33932 -2.11943,2.76444 -2.30777,4.58412 -0.18849,1.8211 -0.88039,2.87095 -2.42317,3.67679 -0.67699,0.35361 -0.7276,0.49645 -0.7276,2.05335 0,1.42798 -0.11292,1.82918 -0.77023,2.73656 -1.712996,2.36473 -6.108939,4.31313 -6.108939,2.70766 z m 4.03084,-2.75151 c 0.10692,-0.1532 0.19621,-1.06734 0.19844,-2.03141 0.007,-2.92131 0.185323,-3.39942 1.484289,-3.97401 1.36464,-0.60365 2.22393,-1.6175 2.22393,-2.62396 0,-0.70022 0.30145,-1.33646 2.8755,-6.06896 0.59364,-1.09141 1.08246,-2.16191 1.0863,-2.37891 0.004,-0.21699 -0.42216,-1.26297 -0.94663,-2.32441 l -0.95357,-1.92988 2.08627,-2.1735 c 3.48645,-3.63221 4.51421,-5.42683 4.85417,-8.47602 0.22375,-2.00695 0.75987,-2.81608 2.37214,-3.58017 0.70244,-0.3329 1.13995,-0.86336 1.830026,-2.21887 0.7917,-1.5551 0.90554,-2.02556 0.89612,-3.70346 -0.0137,-2.43766 -0.61674,-4.05085 -2.916736,-7.80208 -4.40043,-7.17699 -5.18636,-9.0521 -5.18636,-12.37376 0,-2.25749 0.61943,-3.52852 2.05058,-4.20764 1.15388,-0.54756 1.39955,-0.53533 1.73219,0.0862 0.15049,0.28118 0.54162,0.59221 0.86921,0.69118 0.98035,0.29617 2.03277,1.47385 2.217946,2.48193 0.0956,0.52022 0.28174,1.01617 0.41372,1.10212 0.1383,0.0901 0.10565,0.45104 -0.0771,0.85206 -0.422826,0.928 0.0133,1.44928 1.30227,1.55658 l 0.97204,0.0809 -0.0685,1.52136 c -0.0542,1.20208 0.0142,1.52135 0.32568,1.52135 0.543647,0 0.768417,-1.09611 0.570357,-2.78134 -0.187397,-1.59449 0.14121,-2.77491 0.7725,-2.77491 0.35686,0 0.39469,0.22222 0.24365,1.43111 -0.16754,1.34102 -0.13556,1.45943 0.50809,1.88117 1.15149,0.75449 1.58217,0.35418 1.41033,-1.31088 -0.19278,-1.86786 -0.55528,-2.49026 -1.73284,-2.9752 -0.92794,-0.38215 -2.166017,-1.33017 -2.157457,-1.65201 0.002,-0.0838 0.11721,-0.33091 0.25551,-0.54919 0.20802,-0.3283 0.38073,-0.2422 0.999447,0.49822 0.55059,0.65888 0.95446,0.89104 1.53042,0.87975 1.07573,-0.0211 2.50223,-0.34111 2.50223,-0.56133 0,-0.42455 -0.69234,-0.81664 -1.44197,-0.81663 -0.5821,1e-5 -1.02818,-0.24781 -1.60073,-0.88928 -1.11065,-1.24434 -4.952503,-2.68417 -7.146953,-2.67849 -3.99498,0.0103 -6.8225,3.98234 -5.96403,8.37814 0.58,2.96991 2.76208,7.57136 6.03574,12.72781 1.10933,1.74735 1.76961,4.29837 1.52858,5.90569 -0.23041,1.53655 -1.53216,3.01445 -2.65512,3.01445 -1.96112,0 -4.40023,-2.32898 -6.28469,-6.0009 -1.93614,-3.77267 -2.56117,-5.8467 -2.99029,-9.92268 -0.49831,-4.73323 -1.58842,-11.46414 -2.26171,-13.96504 -0.812996,-3.01985 -1.919599,-4.85611 -4.050339,-6.72105 -1.01963,-0.89244 -3.28756,-2.99385 -5.03983,-4.6698 -1.75227,-1.67594 -3.79373,-3.43342 -4.53657,-3.90552 -1.37493,-0.87381 -3.85726,-1.95855 -5.22971,-2.2853 -0.74129,-0.17649 -0.75553,-0.15973 -0.59433,0.69953 0.13503,0.71977 -0.004,1.14284 -0.76186,2.31923 -0.65136,1.011 -0.92701,1.74282 -0.92701,2.461 0,1.01271 -0.008,1.02052 -0.85991,0.84705 -0.47294,-0.0963 -1.51472,-0.35914 -2.31509,-0.58408 -0.80036,-0.22495 -1.60404,-0.44954 -1.78594,-0.49909 -0.1819,-0.0495 -0.33073,-0.2129 -0.33073,-0.36299 0,-0.15883 0.70286,-0.27288 1.68175,-0.27288 1.50988,0 1.80388,-0.0933 2.87695,-0.91261 0.65737,-0.50194 1.26995,-1.10737 1.36129,-1.34541 0.10657,-0.27772 -0.18957,-0.1527 -0.82643,0.34889 -0.82364,0.64869 -1.33664,0.81347 -3.01509,0.96849 -2.27883,0.21047 -2.99807,-0.15452 -1.19778,-0.60784 0.62628,-0.1577 1.36894,-0.54884 1.65036,-0.8692 0.43471,-0.49486 0.44451,-0.55803 0.0652,-0.41996 -1.52408,0.55471 -2.68154,0.7415 -2.94739,0.47565 -0.20208,-0.20207 -0.11042,-0.28384 0.31812,-0.28384 0.65418,0 4.37534,-2.09588 4.13965,-2.33158 -0.2363,-0.23629 -3.5612,-0.0916 -5.73872,0.24978 -2.04783,0.32101 -2.41687,0.26048 -4.78281,-0.78452 -0.45807,-0.20233 -0.14559,0.60949 0.59408,1.5434 1.27986,1.61596 0.89831,1.81091 -0.9485,0.48463 -0.64201,-0.46106 -1.23777,-0.76781 -1.32392,-0.68166 -0.0862,0.0862 0.50897,0.94123 1.32248,1.90018 1.46786,1.7303 1.4791,1.75674 1.4791,3.47718 0,3.0618 0.60592,3.3657 1.99263,0.99942 0.79425,-1.35527 1.63354,-1.5135 1.50309,-0.28337 -0.0489,0.46143 0.0504,0.71821 0.27798,0.71821 0.19478,0 0.6746,0.14883 1.06628,0.33073 1.04121,0.48355 0.92572,1.3876 -0.25675,2.00997 -0.72035,0.37915 -1.37815,0.15403 -2.10454,-0.72023 -0.5011,-0.60312 -0.61496,-0.63659 -1.02049,-0.30003 -0.35789,0.29704 -0.42214,0.6293 -0.2975,1.53863 0.0874,0.63788 0.0331,2.28814 -0.12064,3.66726 -0.33756,3.02725 -0.17338,3.38351 1.47371,3.19786 0.59365,-0.0669 1.51407,-0.32794 2.04537,-0.58006 0.5313,-0.25212 1.19025,-0.38722 1.46432,-0.30024 0.37403,0.11871 0.94008,-0.29941 2.26937,-1.67632 1.72935,-1.79131 2.55508,-3.16434 2.55508,-4.24864 0,-0.29572 0.11906,-0.53767 0.26459,-0.53767 0.14553,0 0.26459,0.58666 0.26459,1.3037 0,0.97573 -0.23352,1.75169 -0.92828,3.08458 -0.51054,0.97949 -0.87054,1.8386 -0.80001,1.90913 0.0705,0.0705 0.89311,-0.54329 1.82795,-1.36404 1.26367,-1.10943 1.96103,-2.00126 2.71825,-3.47627 1.09623,-2.13534 1.49424,-2.49498 1.24658,-1.12637 -0.32558,1.79915 -1.39695,3.60081 -3.5131,5.90775 -1.1909,1.29827 -2.29754,2.59861 -2.45919,2.88965 -0.36238,0.65247 5.93244,-5.20061 6.97154,-6.48229 0.41292,-0.50932 0.99861,-1.2237 1.30153,-1.5875 l 0.55076,-0.66146 -0.16946,0.79375 c -0.31344,1.46814 -1.7846,3.33434 -4.4113,5.59583 -2.9675,2.5549 -3.92277,4.03247 -3.92277,6.0675 0,1.05776 0.1253,1.34596 0.89535,2.05932 0.93536,0.86649 1.38921,2.15427 0.98231,2.78726 -0.1854,0.28842 -0.71186,0.33784 -2.38058,0.22347 -2.25662,-0.15467 -3.37721,-0.58715 -7.16547,-2.76538 l -1.71526,-0.98627 -4.72875,0.0711 -4.72875,0.071 -1.48532,0.83826 c -1.88536,1.06403 -3.16387,2.34377 -4.26602,4.27011 -0.97401,1.70241 -0.86545,2.09716 0.53945,1.96158 0.67735,-0.0654 1.02186,-0.30278 1.46782,-1.01146 0.32049,-0.50933 0.81408,-1.16417 1.09689,-1.45521 0.28278,-0.29104 0.58997,-0.77193 0.68259,-1.06865 0.22203,-0.71107 2.66504,-2.14814 4.01504,-2.36177 2.38655,-0.37767 7.61986,1.34887 10.87314,3.58718 0.67167,0.46212 2.36719,2.00224 3.76782,3.42249 2.39184,2.42534 2.64115,2.6031 4.10223,2.92473 1.35259,0.29774 1.78426,0.28385 3.30729,-0.10643 2.28809,-0.58633 3.00769,-0.58255 2.89257,0.0152 -0.0554,0.28778 -0.77604,0.73613 -1.92723,1.19907 -1.96464,0.79005 -2.24598,1.0389 -2.25233,1.99217 -0.006,0.93925 2.45314,4.79344 4.01704,6.29521 1.46506,1.40687 4.48424,3.81225 4.78503,3.81225 0.0958,0 0.69949,-0.37024 1.34147,-0.82275 1.44608,-1.01929 3.15884,-1.27661 4.36065,-0.65513 1.42433,0.73655 0.9796,1.47788 -0.88662,1.47788 -1.25221,0 -2.14539,0.39647 -2.65896,1.18026 -0.57691,0.88049 -0.57921,6.24603 -0.004,9.22268 0.68281,3.53313 1.43085,4.67832 5.05109,7.73289 l 3.172479,2.67676 -0.0162,2.22756 c -0.0194,2.66357 -0.52957,4.03266 -2.741049,7.35627 -0.81182,1.22006 -1.66895,2.55873 -1.90474,2.97483 -0.44795,0.79049 -0.92323,4.78286 -0.62654,5.2629 0.17242,0.27899 1.90919,-0.6102 2.30797,-1.18164 z m -5.35376,-44.25533 c 0,-0.1206 1.11265,-1.34798 2.47256,-2.7275 1.7267,-1.7516 2.81448,-3.13241 3.606073,-4.57746 1.223536,-2.23361 1.695916,-2.3718 1.320326,-0.38624 -0.34747,1.8369 -1.202426,3.32047 -2.795789,4.85143 -1.34804,1.29526 -4.60317,3.3034 -4.60317,2.83977 z m -1.32292,-3.38253 c 0,-0.0722 0.77551,-0.97625 1.72335,-2.0091 2.08038,-2.26695 3.75738,-4.43462 4.74073,-6.12782 1.006863,-1.73369 1.324683,-1.86568 1.137823,-0.47253 -0.3535,2.63558 -2.772203,6.00725 -5.700983,7.9472 -1.08691,0.71993 -1.90092,1.00352 -1.90092,0.66225 z m 0.0441,-4.8754 c 0.0485,-0.13426 1.09179,-1.41418 2.31841,-2.84427 2.31494,-2.69897 4.26671,-5.5092 4.931833,-7.10107 0.38198,-0.9142 0.907746,-1.24679 0.907746,-0.57422 0,1.6328 -1.947319,5.8068 -3.489759,7.48015 -1.55528,1.68728 -4.98697,3.9216 -4.66823,3.03941 z m 24.562165,-10.36732 c 0,-0.80584 -0.20316,-1.3429 -0.78667,-2.07965 -0.905036,-1.1427 -0.799476,-1.48157 0.28657,-0.91995 1.29458,0.66945 2.04897,2.96046 1.24093,3.76851 -0.54979,0.54979 -0.74083,0.35151 -0.74083,-0.76891 z m -31.869965,-4.2714 c 0.34405,-1.13605 1.18241,-2.24561 2.9691,-3.92959 0.98784,-0.93104 2.17566,-2.16906 2.63959,-2.75114 0.75395,-0.94595 0.84446,-0.99373 0.85239,-0.44988 0.005,0.33464 -0.18178,0.98949 -0.41481,1.45521 -0.43469,0.86873 -5.60825,6.27071 -6.00555,6.27071 -0.12156,0 -0.13988,-0.26789 -0.0407,-0.59531 z m -14.02281,-2.82415 c -0.0931,-0.15058 -0.038,-0.51885 0.12228,-0.8184 0.16031,-0.29955 0.22051,-0.76824 0.13377,-1.04154 -0.18262,-0.57536 0.13547,-0.8641 0.62121,-0.5639 0.51227,0.3166 0.28609,2.50918 -0.26971,2.61452 -0.24109,0.0457 -0.51449,-0.0401 -0.60755,-0.19068 z m -4.7183,48.86164 c 0.45203,-0.47294 1.05058,-1.27661 1.3301,-1.78593 0.45421,-0.82765 0.64984,-0.94054 1.84122,-1.06242 1.07187,-0.10966 1.55432,-0.3363 2.46266,-1.15694 l 1.12965,-1.02057 5.75172,0.19142 c 4.09375,0.13624 5.91219,0.10552 6.30846,-0.10656 0.49895,-0.26702 0.5551,-0.524 0.54078,-2.47465 -0.0199,-2.71472 0.67885,-4.75336 2.1564,-6.2912 l 1.03662,-1.07891 -0.39674,-0.97456 c -0.87902,-2.15932 -2.96905,-3.19525 -5.29065,-2.62234 -1.98633,0.49017 -2.30812,1.33157 -2.50209,6.54256 -0.16372,4.39818 -0.35421,5.06273 -1.58514,5.53015 -0.36783,0.13968 -2.45473,0.30281 -4.63754,0.36251 -4.63914,0.12689 -4.84399,0.20109 -7.22293,2.61658 -0.90851,0.92247 -2.06603,2.05397 -2.57227,2.51444 -1.0266,0.9338 -1.14322,1.31471 -0.4574,1.49393 0.98747,0.25806 1.31296,0.1534 2.10715,-0.67751 z m 2.69159,-24.84727 0.80963,-1.10093 -0.51112,-0.94959 c -0.91286,-1.69596 -1.23786,-2.77745 -1.0407,-3.46314 0.40417,-1.40571 0.27732,-2.11669 -0.42531,-2.38383 -0.91104,-0.34637 -1.02342,-0.78543 -0.6882,-2.68853 0.32042,-1.81903 0.0916,-2.41989 -0.86937,-2.2826 -0.49357,0.0705 -0.58483,0.36035 -0.85796,2.72475 -0.46114,3.99195 -0.45499,4.06068 0.43793,4.89479 0.58245,0.54409 0.79375,0.98218 0.79375,1.64564 0,1.27511 1.05088,4.70436 1.44163,4.70436 0.0551,0 0.46443,-0.49541 0.90972,-1.10092 z m 5.32157,-15.81049 c 0,-0.25414 -2.63679,-0.91291 -2.84013,-0.70957 -0.0644,0.0644 0.22088,0.30022 0.63392,0.52406 0.83009,0.44985 2.20621,0.56556 2.20621,0.18551 z m -1.05833,-15.88132 c 0,-0.35728 -0.48232,-0.60497 -0.79807,-0.40982 -0.14789,0.0914 -0.2004,0.27702 -0.11668,0.41249 0.19862,0.32136 0.91475,0.31928 0.91475,-0.003 z m 7.14375,-7.15937 c 0,-0.14552 -0.11907,-0.26459 -0.2646,-0.26459 -0.14551,0 -0.26457,0.11907 -0.26457,0.26459 0,0.14552 0.11906,0.26458 0.26457,0.26458 0.14553,0 0.2646,-0.11906 0.2646,-0.26458 z"
         style="fill:#181c1d;stroke-width:0.264583"
         sodipodi:nodetypes="cscsssssssssccssscsscssssssscsssssssssscsscssssscssssssssscssssssssssssssssssssssssscsssscssssssssssssssscssssssccscssscscsssscssssscscsccssssssscssssssssssssssssssscsssssssssssssssssssssssscsssssccsssssssssssssssscssssssscccssssssssssssscsssssscsccscssssssssssssssssssssssssssssscsssscsssscsssscsscscsssssssssscsssssssssssssscssccsssss" />
    </g>
  </g>
</svg>
